<svg width="28" height="28" viewBox="0 0 28 28" fill="none" xmlns="http://www.w3.org/2000/svg">
  <path
    d="M2 6.5C2 4.01472 4.01472 2 6.5 2H21.5C23.9853 2 26 4.01472 26 6.5V21.5C26 23.9853 23.9853 26 21.5 26H6.5C4.01472 26 2 23.9853 2 21.5V6.5Z"
    fill="url(#paint0_linear_2576_1093)" />
  <path
    d="M8.675 22.0266C8.0951 22.0266 7.625 21.5565 7.625 20.9766V7.02656C7.625 6.44666 8.0951 5.97656 8.675 5.97656H16.3936C16.8044 5.97656 17.1835 6.12942 17.5311 6.43513L19.8062 8.26942C20.1854 8.57513 20.375 8.88085 20.375 9.18656V18.8166C20.375 19.1223 20.1854 19.428 19.8062 19.7337L17.5311 21.568C17.1835 21.8737 16.8044 22.0266 16.3936 22.0266H10.3921L13.1746 19.7773H15.5489C15.8147 19.7773 16.06 19.6673 16.2849 19.4473L17.757 18.1273C18.0024 17.9073 18.1251 17.6873 18.1251 17.4673V10.5373C18.1251 10.3173 18.0024 10.0973 17.757 9.87734L16.2849 8.55734C16.06 8.33734 15.8147 8.22734 15.5489 8.22734H9.87508L9.87606 22.0266H8.675Z"
    fill="#F3F4F6" />
  <defs>
    <linearGradient id="paint0_linear_2576_1093" x1="2" y1="14" x2="26" y2="14" gradientUnits="userSpaceOnUse">
      <stop stop-color="#00DBDE" />
      <stop offset="1" stop-color="#FC00FF" />
    </linearGradient>
  </defs>
</svg>
