<svg width="24" height="24" viewBox="0 0 24 24" fill="none" xmlns="http://www.w3.org/2000/svg">
  <path d="M5 6H5.5M8.5 6H10M13 6H19M19 6L15 10M19 6L15 2" stroke="currentColor" stroke-width="1.5" stroke-linecap="round"
    stroke-linejoin="round" />
  <path
    d="M12 22C12 20.6739 12.5268 19.4021 13.4645 18.4645C14.4021 17.5268 15.6739 17 17 17C15.6739 17 14.4021 16.4732 13.4645 15.5355C12.5268 14.5979 12 13.3261 12 12C12 13.3261 11.4732 14.5979 10.5355 15.5355C9.59785 16.4732 8.32608 17 7 17C8.32608 17 9.59785 17.5268 10.5355 18.4645C11.4732 19.4021 12 20.6739 12 22Z"
    fill="url(#paint0_linear_4830_783)" stroke="url(#paint1_linear_4830_783)" stroke-width="1.5" stroke-linecap="round"
    stroke-linejoin="round" />
  <defs>
    <linearGradient id="paint0_linear_4830_783" x1="7" y1="17" x2="17" y2="17" gradientUnits="userSpaceOnUse">
      <stop stop-color="#00DBDE" />
      <stop offset="0.81" stop-color="#FC00FF" />
    </linearGradient>
    <linearGradient id="paint1_linear_4830_783" x1="7" y1="17" x2="17" y2="17" gradientUnits="userSpaceOnUse">
      <stop stop-color="#00DBDE" />
      <stop offset="0.81" stop-color="#FC00FF" />
    </linearGradient>
  </defs>
</svg>
