<svg width="60" height="60" viewBox="0 0 60 60" fill="none" xmlns="http://www.w3.org/2000/svg">
  <path
    d="M15 37.5V35C15 33.6739 15.5268 32.4021 16.4645 31.4645C17.4021 30.5268 18.6739 30 20 30H40C41.3261 30 42.5979 30.5268 43.5355 31.4645C44.4732 32.4021 45 33.6739 45 35V37.5M30 22.5V30M7.5 42.5C7.5 41.1739 8.02678 39.9021 8.96447 38.9645C9.90215 38.0268 11.1739 37.5 12.5 37.5H17.5C18.8261 37.5 20.0979 38.0268 21.0355 38.9645C21.9732 39.9021 22.5 41.1739 22.5 42.5V47.5C22.5 48.8261 21.9732 50.0979 21.0355 51.0355C20.0979 51.9732 18.8261 52.5 17.5 52.5H12.5C11.1739 52.5 9.90215 51.9732 8.96447 51.0355C8.02678 50.0979 7.5 48.8261 7.5 47.5V42.5ZM37.5 42.5C37.5 41.1739 38.0268 39.9021 38.9645 38.9645C39.9021 38.0268 41.1739 37.5 42.5 37.5H47.5C48.8261 37.5 50.0979 38.0268 51.0355 38.9645C51.9732 39.9021 52.5 41.1739 52.5 42.5V47.5C52.5 48.8261 51.9732 50.0979 51.0355 51.0355C50.0979 51.9732 48.8261 52.5 47.5 52.5H42.5C41.1739 52.5 39.9021 51.9732 38.9645 51.0355C38.0268 50.0979 37.5 48.8261 37.5 47.5V42.5ZM22.5 12.5C22.5 11.1739 23.0268 9.90215 23.9645 8.96447C24.9021 8.02678 26.1739 7.5 27.5 7.5H32.5C33.8261 7.5 35.0979 8.02678 36.0355 8.96447C36.9732 9.90215 37.5 11.1739 37.5 12.5V17.5C37.5 18.8261 36.9732 20.0979 36.0355 21.0355C35.0979 21.9732 33.8261 22.5 32.5 22.5H27.5C26.1739 22.5 24.9021 21.9732 23.9645 21.0355C23.0268 20.0979 22.5 18.8261 22.5 17.5V12.5Z"
    stroke="#7F8792" stroke-width="1.5" stroke-linecap="round" stroke-linejoin="round" />
</svg>
