<svg width="24" height="24" viewBox="0 0 24 24" fill="none" xmlns="http://www.w3.org/2000/svg">
  <path
    d="M5 6H5.5M8.5 6H10M13 6H19M19 6L15 10M19 6L15 2M10.4444 18C10.4444 18.3536 10.6083 18.6928 10.9001 18.9428C11.1918 19.1929 11.5874 19.3333 12 19.3333C12.4126 19.3333 12.8082 19.1929 13.0999 18.9428C13.3917 18.6928 13.5556 18.3536 13.5556 18C13.5556 17.6464 13.3917 17.3072 13.0999 17.0572C12.8082 16.8071 12.4126 16.6667 12 16.6667C11.5874 16.6667 11.1918 16.8071 10.9001 17.0572C10.6083 17.3072 10.4444 17.6464 10.4444 18ZM19 18C17.1333 20.6667 14.8 22 12 22C9.2 22 6.86667 20.6667 5 18C6.86667 15.3333 9.2 14 12 14C14.8 14 17.1333 15.3333 19 18Z"
    stroke="currentColor" stroke-width="1.5" stroke-linecap="round" stroke-linejoin="round" />
</svg>
