<svg width="18" height="18" viewBox="0 0 18 18" fill="none" xmlns="http://www.w3.org/2000/svg">
<path d="M10.5 2.25V5.25C10.5 5.44891 10.579 5.63968 10.7197 5.78033C10.8603 5.92098 11.0511 6 11.25 6H14.25M10.5 2.25H5.25C4.85218 2.25 4.47064 2.40804 4.18934 2.68934C3.90804 2.97064 3.75 3.35218 3.75 3.75V9M10.5 2.25L14.25 6M14.25 6V9M1.4375 13.5H2.5625C2.86087 13.5 3.14702 13.3815 3.358 13.1705C3.56897 12.9595 3.6875 12.6734 3.6875 12.375C3.6875 12.0766 3.56897 11.7905 3.358 11.5795C3.14702 11.3685 2.86087 11.25 2.5625 11.25H1.4375V15.75M5.9375 13.5H7.0625C7.36087 13.5 7.64702 13.3815 7.858 13.1705C8.06897 12.9595 8.1875 12.6734 8.1875 12.375C8.1875 12.0766 8.06897 11.7905 7.858 11.5795C7.64702 11.3685 7.36087 11.25 7.0625 11.25H5.9375V15.75M10.0625 11.25H12.3125M11.1875 11.25V15.75M14.3125 11.25L16.5625 15.75M14.3125 15.75L16.5625 11.25" stroke="currentColor" stroke-width="1.5" stroke-linecap="round" stroke-linejoin="round"/>
</svg>