<svg width="24" height="24" viewBox="0 0 24 24" fill="none" xmlns="http://www.w3.org/2000/svg">
<path d="M10.1887 8.74128L2.63193 16.3344C2.43167 16.5334 2.27274 16.77 2.16429 17.0306C2.05583 17.2912 2 17.5707 2 17.853C2 18.1352 2.05583 18.4147 2.16429 18.6753C2.27274 18.936 2.43167 19.1725 2.63193 19.3715C3.0366 19.774 3.58417 20 4.15494 20C4.72572 20 5.27329 19.774 5.67796 19.3715L13.2593 11.8121M10.1887 8.74128L7.84165 6.39414C7.64977 6.20219 7.54198 5.94188 7.54198 5.67045C7.54198 5.39903 7.64977 5.13871 7.84165 4.94676L10.4885 2.2997C10.6805 2.1078 10.9407 2 11.2122 2C11.4836 2 11.7439 2.1078 11.9358 2.2997L19.7003 10.0648C19.8922 10.2568 20 10.5171 20 10.7885C20 11.0599 19.8922 11.3202 19.7003 11.5122M10.1887 8.74128L13.2593 11.8121M13.2593 11.8121L14.1483 12.7011M15.2188 17.1851C15.5177 16.4662 16.0442 15.8657 16.7173 15.4762C17.3903 15.0866 18.1726 14.9295 18.9435 15.0292C19.7144 15.1289 20.4312 15.4797 20.9835 16.0277C21.3813 16.4224 21.6779 16.9035 21.8526 17.43M15 15.4318V17.1851H16.75M21.7813 19.8149C21.4823 20.5338 20.9558 21.1343 20.2827 21.5238C19.6097 21.9134 18.8274 22.0705 18.0565 21.9708C17.2856 21.8711 16.5688 21.5203 16.0165 20.9723C15.6387 20.5975 15.3523 20.1447 15.1747 19.6491M22 21.5682V19.8149H20.25" stroke="currentColor" stroke-width="1.5" stroke-linecap="round" stroke-linejoin="round"/>
</svg>