<svg width="24" height="24" viewBox="0 0 24 24" fill="none" xmlns="http://www.w3.org/2000/svg">
<path fill-rule="evenodd" clip-rule="evenodd" d="M16.9595 3.33984C19.007 3.33984 20.667 4.99981 20.667 7.04735V16.9529C20.667 19.0004 19.007 20.6604 16.9595 20.6604H7.04038C4.99284 20.6604 3.33288 19.0004 3.33288 16.9529V7.04735C3.33288 4.99981 4.99284 3.33984 7.04038 3.33984H16.9595ZM15.5543 14.7488C14.7599 14.9856 13.1655 15.4127 12.0005 15.4128C10.8353 15.4128 9.24004 14.9856 8.4456 14.7488C8.20294 14.6767 7.95439 14.8575 7.95419 15.1106V15.3218C7.95419 15.4448 8.01528 15.5598 8.12148 15.6219C8.60275 15.9031 10.0812 16.6632 12.0005 16.6632C13.9194 16.6631 15.3971 15.9032 15.8784 15.6219C15.9846 15.5598 16.0457 15.4448 16.0457 15.3218V15.1106C16.0455 14.8574 15.797 14.6766 15.5543 14.7488ZM8.64112 8.50484C7.67604 8.50501 6.89324 9.28691 6.89296 10.252C6.89296 11.2172 7.67587 11.9999 8.64112 12.0001C9.6065 12.0001 10.3893 11.2173 10.3893 10.252C10.389 9.2868 9.60633 8.50484 8.64112 8.50484ZM15.3588 8.50484C14.3936 8.50494 13.6109 9.28686 13.6106 10.252C13.6106 11.2173 14.3934 12 15.3588 12.0001C16.3241 12.0001 17.1069 11.2173 17.1069 10.252C17.1066 9.2868 16.324 8.50484 15.3588 8.50484Z" fill="currentColor"/>
<path d="M21.5236 8.55503C21.5236 8.25938 21.7632 8.01971 22.0589 8.01971H22.4647C22.7603 8.01971 23 8.25938 23 8.55503V14.624C23 14.9197 22.7603 15.1594 22.4647 15.1594H22.0589C21.7632 15.1594 21.5236 14.9197 21.5236 14.624V8.55503Z" fill="currentColor"/>
<path d="M1 8.55503C1 8.25938 1.23967 8.01971 1.53532 8.01971H1.94113C2.23677 8.01971 2.47644 8.25938 2.47644 8.55503V14.624C2.47644 14.9197 2.23677 15.1594 1.94112 15.1594H1.53532C1.23967 15.1594 1 14.9197 1 14.624V8.55503Z" fill="currentColor"/>
</svg>